<svg xmlns="http://www.w3.org/2000/svg" xmlns:xlink="http://www.w3.org/1999/xlink" width="64" zoomAndPan="magnify" viewBox="0 0 48 48" height="64" preserveAspectRatio="xMidYMid meet" version="1.0"><defs><g/><clipPath id="6240dea336"><path d="M 0.488281 0 L 47.507812 0 L 47.507812 47.019531 L 0.488281 47.019531 Z M 0.488281 0 " clip-rule="nonzero"/></clipPath><clipPath id="ceac54ff08"><path d="M 0.488281 0 L 46.480469 0 L 46.480469 45.109375 L 0.488281 45.109375 Z M 0.488281 0 " clip-rule="nonzero"/></clipPath><clipPath id="501fb843ca"><path d="M 23.417969 0 L 46.347656 22.554688 L 23.417969 45.109375 L 0.488281 22.554688 Z M 23.417969 0 " clip-rule="nonzero"/></clipPath></defs><g clip-path="url(#6240dea336)"><path fill="#ffffff" d="M 0.488281 0 L 47.511719 0 L 47.511719 47.019531 L 0.488281 47.019531 Z M 0.488281 0 " fill-opacity="1" fill-rule="nonzero"/><path fill="#ffffff" d="M 0.488281 0 L 47.511719 0 L 47.511719 47.019531 L 0.488281 47.019531 Z M 0.488281 0 " fill-opacity="1" fill-rule="nonzero"/></g><g clip-path="url(#ceac54ff08)"><g clip-path="url(#501fb843ca)"><path fill="#38b6ff" d="M 0.488281 0 L 46.304688 0 L 46.304688 45.109375 L 0.488281 45.109375 Z M 0.488281 0 " fill-opacity="1" fill-rule="nonzero"/></g></g><g fill="#ff5757" fill-opacity="1"><g transform="translate(16.584488, 28.052565)"><g><path d="M 0.28125 0 C 0.519531 -0.789062 0.703125 -1.628906 0.828125 -2.515625 C 0.953125 -3.398438 1.015625 -4.328125 1.015625 -5.296875 C 1.015625 -6.160156 0.957031 -7.007812 0.84375 -7.84375 C 0.726562 -8.6875 0.539062 -9.472656 0.28125 -10.203125 L 2.796875 -10.203125 C 2.566406 -9.441406 2.382812 -8.609375 2.25 -7.703125 C 2.125 -6.796875 2.0625 -5.863281 2.0625 -4.90625 C 2.0625 -4.050781 2.117188 -3.203125 2.234375 -2.359375 C 2.347656 -1.523438 2.535156 -0.738281 2.796875 0 Z M 0.28125 0 "/></g></g></g><g fill="#ff5757" fill-opacity="1"><g transform="translate(19.649539, 28.052565)"><g><path d="M 1.65625 0 C 1.65625 -1.351562 1.597656 -2.625 1.484375 -3.8125 C 1.378906 -5 1.195312 -6.125 0.9375 -7.1875 C 0.675781 -8.25 0.316406 -9.253906 -0.140625 -10.203125 L 3.796875 -10.203125 C 4.023438 -9.765625 4.1875 -9.347656 4.28125 -8.953125 C 4.375 -8.554688 4.421875 -8.179688 4.421875 -7.828125 C 4.421875 -7.273438 4.320312 -6.765625 4.125 -6.296875 C 3.9375 -5.835938 3.707031 -5.421875 3.4375 -5.046875 C 3.164062 -4.679688 2.90625 -4.347656 2.65625 -4.046875 C 2.4375 -3.785156 2.253906 -3.550781 2.109375 -3.34375 C 1.960938 -3.132812 1.890625 -2.929688 1.890625 -2.734375 C 1.890625 -2.566406 1.929688 -2.445312 2.015625 -2.375 C 2.097656 -2.300781 2.210938 -2.265625 2.359375 -2.265625 C 2.566406 -2.265625 2.820312 -2.320312 3.125 -2.4375 C 3.425781 -2.550781 3.734375 -2.722656 4.046875 -2.953125 C 4.367188 -3.179688 4.671875 -3.472656 4.953125 -3.828125 C 5.242188 -4.179688 5.476562 -4.597656 5.65625 -5.078125 C 5.832031 -5.566406 5.921875 -6.117188 5.921875 -6.734375 C 5.921875 -7.253906 5.847656 -7.800781 5.703125 -8.375 C 5.566406 -8.957031 5.332031 -9.566406 5 -10.203125 L 7.8125 -10.203125 C 7.5625 -9.453125 7.296875 -8.679688 7.015625 -7.890625 C 6.742188 -7.097656 6.515625 -6.289062 6.328125 -5.46875 C 6.140625 -4.65625 6.046875 -3.835938 6.046875 -3.015625 C 6.046875 -2.390625 6.09375 -1.804688 6.1875 -1.265625 C 6.28125 -0.722656 6.410156 -0.300781 6.578125 0 Z M 1.65625 0 "/></g></g></g><g fill="#ff5757" fill-opacity="1"><g transform="translate(27.352345, 28.052565)"><g><path d="M 1.84375 0 C 1.695312 -0.375 1.59375 -0.722656 1.53125 -1.046875 C 1.46875 -1.367188 1.4375 -1.691406 1.4375 -2.015625 C 1.4375 -2.460938 1.488281 -2.890625 1.59375 -3.296875 C 1.695312 -3.710938 1.828125 -4.101562 1.984375 -4.46875 C 2.148438 -4.84375 2.304688 -5.1875 2.453125 -5.5 C 2.597656 -5.8125 2.722656 -6.097656 2.828125 -6.359375 C 2.929688 -6.617188 2.984375 -6.859375 2.984375 -7.078125 C 2.984375 -7.335938 2.910156 -7.535156 2.765625 -7.671875 C 2.617188 -7.816406 2.441406 -7.890625 2.234375 -7.890625 C 2.003906 -7.890625 1.757812 -7.832031 1.5 -7.71875 C 1.238281 -7.613281 0.984375 -7.484375 0.734375 -7.328125 C 0.484375 -7.179688 0.257812 -7.050781 0.0625 -6.9375 L 0.0625 -10.203125 L 6.59375 -10.203125 L 6.59375 -6.921875 C 6.519531 -6.984375 6.410156 -7.066406 6.265625 -7.171875 C 6.117188 -7.285156 5.945312 -7.40625 5.75 -7.53125 C 5.5625 -7.65625 5.359375 -7.757812 5.140625 -7.84375 C 4.929688 -7.925781 4.726562 -7.96875 4.53125 -7.96875 C 4.289062 -7.96875 4.097656 -7.898438 3.953125 -7.765625 C 3.816406 -7.628906 3.710938 -7.453125 3.640625 -7.234375 C 3.566406 -7.015625 3.519531 -6.78125 3.5 -6.53125 C 3.476562 -6.28125 3.46875 -6.046875 3.46875 -5.828125 C 3.46875 -5.109375 3.546875 -4.410156 3.703125 -3.734375 C 3.867188 -3.066406 4.082031 -2.421875 4.34375 -1.796875 C 4.601562 -1.179688 4.882812 -0.582031 5.1875 0 Z M 1.84375 0 "/></g></g></g></svg>